<svg width="100" height="100" viewBox="0 0 100 100" fill="none" xmlns="http://www.w3.org/2000/svg">
<g clip-path="url(#clip0)">
<path fill-rule="evenodd" clip-rule="evenodd" d="M61.6861 31.2183C55.3055 31.0545 47.2873 30.1796 38.621 27.6386L41.6327 17.3673C50.6728 20.018 58.9529 20.6119 64.9724 20.5387C67.9754 20.5022 70.3949 20.2999 72.0377 20.1116C72.8585 20.0176 73.4833 19.9272 73.8878 19.8634C74.09 19.8314 74.237 19.8062 74.3257 19.7904C74.3376 19.7883 74.3486 19.7863 74.3584 19.7845C74.385 19.7797 74.4037 19.7763 74.4145 19.7742L74.4223 19.7728L74.4253 19.7722L82.238 18.2344L80.7004 26.0471L80.6999 26.0499L80.6984 26.0579C80.6973 26.0637 80.6958 26.0716 80.694 26.0818C80.691 26.0979 80.6871 26.1196 80.6822 26.1468C80.6665 26.2354 80.6412 26.3824 80.6093 26.5846C80.5454 26.9892 80.4551 27.614 80.3611 28.4348C80.1728 30.0777 79.9705 32.4973 79.9341 35.5004C79.861 41.52 80.4551 49.8002 83.1057 58.8404L72.8345 61.8521C70.2935 53.1859 69.4185 45.1677 69.2546 38.7871L21.5208 86.5208L13.9522 78.9522L61.6861 31.2183Z" fill="black"/>
</g>
<defs>
<clipPath id="clip0">
<rect width="100" height="100" fill="white"/>
</clipPath>
</defs>
</svg>
